<svg xmlns="http://www.w3.org/2000/svg" viewBox="-2.12 20.61 1204.23 690.77" fill="currentColor" style="fill-rule:evenodd;clip-rule:evenodd">
<g transform="matrix(1,0,0,1,-19.227994,3.747665)">
        <path d="M416.56,468.717C412.151,473.335 407.566,478.031 402.8,482.8C367.342,518.28 268.8,551.2 289,442C294.934,409.923 332.3,350.2 333.2,327.9C333.2,327.9 338.5,304.7 310.3,313.3C252.2,339.8 208.049,453.938 205.79,459.898C197.595,446.947 183.142,438.34 166.695,438.34C162.095,438.34 157.65,439.013 153.455,440.267C156.72,422.845 176,336 176,336C169.495,337.435 136.913,354.242 119.302,360.251C119.536,358.369 119.656,356.452 119.656,354.507C119.656,343.735 115.965,333.82 109.779,325.957C139.245,314.586 187.45,286.769 189,285.8C189,285.8 235.8,83.7 303,49C319.8,38.6 340.7,41.3 355,52C390.1,80.1 364.102,144.847 356,160C315.58,235.59 279.4,265 230.5,301.5C227,305 213,359.8 213,362C213,362 232.913,323.114 268.3,292.5C317.652,249.805 382,240 386,312C388.079,349.423 328.8,440.2 337,464C341.532,477.154 360.33,470.1 367.8,464.9C375.146,459.786 383.744,451.986 392.919,442.465C395.359,439.932 405.543,428.811 406.534,427.335C414.689,441.016 428.634,447.19 445.704,447.19C456.618,447.19 466.663,443.44 474.62,437.16C476.236,444.438 481.092,462.239 491,467C545.624,493.247 582.3,410.2 585,406C598.1,408.1 615.8,407.8 630,406C625.3,425.9 601,490.1 532.3,514.2C446.658,534.246 429.924,467.403 427.334,457.212C423.864,460.991 420.275,464.826 416.56,468.717ZM331.3,83C328.405,80.65 326.493,80.139 323.579,81.354C284.918,97.468 245.07,242.21 246,245C248.559,242.437 302.352,201.017 331.333,128.485C342.081,101.586 335.141,86.119 331.3,83Z" style="fill:currentColor;"/>
    </g>
    <g transform="matrix(1,0,0,1,596.572006,275.147665)">
        <path d="M520.277,-9.874C519.832,-9.284 491.097,129.212 490.1,133.5C487.2,130.6 480.6,103.7 453.1,84.5C357.2,191.9 284.688,186.395 283.6,188.1C242.2,253 177.2,266.8 150.3,219.5C144.7,201.4 147.7,193.7 147.9,192.2C155.058,138.517 240.8,150.7 253.1,151.5C271.5,112 270.6,73.3 270.6,73.3C270.5,26.1 236.645,34.463 225.1,37.5C194.434,45.566 148.1,104.5 148.1,104.5C146.4,114.1 107.244,371.094 45.1,402.5C0.714,424.932 -17.9,395.7 -22,379.7C-41.507,303.573 99.5,109.7 100,109.1C103.1,104.9 103.7,101.6 104.2,96.5C104.2,96.5 106.4,66.5 107.1,62.5C94.6,72.3 80.118,98.83 24.6,119.4C-3.2,129.7 -61.29,128.521 -82.8,85.5C-83.4,84.3 -107,45.4 -76.3,7C-55.5,-14.3 -24.6,-17.9 0,0C34.263,24.931 27.1,76.1 27.1,79.5C48.945,72.877 70.009,53.161 83.337,34.743C91.31,49.119 106.643,58.858 124.232,58.858C144.254,58.858 161.352,46.239 168,28.527C187.104,-2.065 278.718,-40.674 310.1,23.5C334.6,73.6 306.1,142.6 305.1,146.5C361.9,132.9 421.9,63.8 424.1,61.5C421,58.3 422.8,42.2 375.1,28.5C379.785,26.407 519.522,-9.576 520.277,-9.874ZM520.277,-9.874C520.278,-9.875 520.279,-9.876 520.28,-9.876C520.28,-9.875 520.279,-9.875 520.277,-9.874ZM-53.8,36.5C-64.379,80.345 -25.1,87.7 -18.8,88.5C-15.8,86.4 -15.7,85.4 -15,81.7C-14.8,80.1 -7.3,34 -32.8,25.5C-38.508,23.597 -52.009,29.078 -53.8,36.5ZM90.1,186.5C89.9,187 89.6,187.5 89.4,188C86.7,192.9 0.4,330 13.5,372.9C15.2,375.7 20.807,382.831 30.1,374.5C53.3,353.7 77.4,275.5 92.1,187.5C91.8,187.4 91.8,187.4 90.1,186.5ZM184.5,191.9C177.9,200 185.4,207.8 189.2,209.4C196.9,211.6 204.1,209.6 211,205.9C218,201.5 228.4,194.7 231.1,186.5C227.5,182.9 193.378,181.004 184.5,191.9Z" style="fill:currentColor;"/>
    </g>
    <g transform="matrix(1,0,0,1,515.772006,268.747665)">
        <path d="M-92.875,88.864C-73.925,32.757 -11.9,-4.9 1,0C0.1,0.8 -22.838,16.435 -21.9,55.262C-21.562,69.279 -38.192,64.956 -51.197,108.408C-59.67,96.501 -73.583,88.729 -89.296,88.729C-90.5,88.729 -91.693,88.775 -92.875,88.864Z" style="fill:currentColor;"/>
    </g>
    <g transform="matrix(1.267053,0,0,1.267053,-8.174181,-60.194283)">
        <circle cx="49.226" cy="330.253" r="24.253" style="fill:currentColor;"/>
    </g>
    <g transform="matrix(1.267053,0,0,1.267053,85.094946,69.868862)">
        <circle cx="49.226" cy="330.253" r="24.253" style="fill:currentColor;"/>
    </g>
    <g transform="matrix(1.267053,0,0,1.267053,364.103977,-14.241525)">
        <circle cx="49.226" cy="330.253" r="24.253" style="fill:currentColor;"/>
    </g>
    <g transform="matrix(1.267053,0,0,1.267053,658.432173,-131.173152)">
        <circle cx="49.226" cy="330.253" r="24.253" style="fill:currentColor;"/>
    </g>
    <g transform="matrix(1.267053,0,0,1.267053,1083.429534,-177.904658)">
        <circle cx="49.226" cy="330.253" r="24.253" style="fill:currentColor;"/>
    </g>
</svg>
